<svg xmlns="http://www.w3.org/2000/svg" viewBox="0 0 512 512">
  <defs>
    <linearGradient id="markFire" x1="0" y1="0" x2="0" y2="1">
      <stop offset="0%" stop-color="#ffe58a"/>
      <stop offset="45%" stop-color="#f6a723"/>
      <stop offset="100%" stop-color="#c2410c"/>
    </linearGradient>
    <filter id="markGlow" x="-60%" y="-60%" width="220%" height="220%">
      <feGaussianBlur stdDeviation="14" result="blur"/>
      <feMerge>
        <feMergeNode in="blur"/>
        <feMergeNode in="SourceGraphic"/>
      </feMerge>
    </filter>
  </defs>

  <!-- Rune tick marks around the rim (Android adaptive icons crop to a safe-zone circle,
       so these mostly show on the legacy square/round launcher variants only). -->
  <g stroke="#c9a15a" stroke-width="6" stroke-linecap="round" opacity="0.75">
    <line x1="256" y1="46" x2="256" y2="70"/>
    <line x1="200" y1="52" x2="212" y2="74"/>
    <line x1="312" y1="52" x2="300" y2="74"/>
    <line x1="256" y1="466" x2="256" y2="442"/>
    <line x1="200" y1="460" x2="212" y2="438"/>
    <line x1="312" y1="460" x2="300" y2="438"/>
    <line x1="46" y1="256" x2="70" y2="256"/>
    <line x1="466" y1="256" x2="442" y2="256"/>
  </g>

  <!-- Rune "N" monogram, glowing -->
  <g filter="url(#markGlow)">
    <path
      d="M176 356 L176 156 L216 156 L296 296 L296 156 L336 156 L336 356 L296 356 L216 216 L216 356 Z"
      fill="#1a1108" stroke="#1a1108" stroke-width="18" stroke-linejoin="round"/>
    <path
      d="M176 356 L176 156 L216 156 L296 296 L296 156 L336 156 L336 356 L296 356 L216 216 L216 356 Z"
      fill="url(#markFire)"/>
  </g>

  <!-- Small ember accent below, echo of the die-and-star mark -->
  <g transform="translate(256 412)">
    <path d="M0 -20l7 15 17 2-12 12 3 17-15-8-15 8 3-17-12-12 17-2z" fill="#fbbf24"/>
  </g>
</svg>
